<mxfile host="app.diagrams.net" modified="2024-04-18T02:03:46.991Z" agent="Mozilla/5.0 (Windows NT 10.0; Win64; x64) AppleWebKit/537.36 (KHTML, like Gecko) Chrome/123.0.0.0 Safari/537.36" version="24.2.5" etag="c3vzqyeT6e7lw7rqhy-T" type="github">
  <diagram name="PÃ¡gina-1" id="V1G1gq6PQ2zcJWylLpea">
    <mxGraphModel>
      <root>
        <mxCell id="0" />
        <mxCell id="1" parent="0" />
      </root>
    </mxGraphModel>
  </diagram>
</mxfile>
